<svg width="40" height="40" viewBox="0 0 40 40" fill="none" xmlns="http://www.w3.org/2000/svg">
<path d="M30.0166 14.9833L25.0166 9.98333M5.83328 34.1667C7.21661 35.55 9.44994 35.55 10.8333 34.1667L32.4999 12.5C33.8833 11.1167 33.8833 8.88333 32.4999 7.49999C31.1166 6.11666 28.8833 6.11666 27.4999 7.49999L5.83328 29.1667C4.44994 30.55 4.44994 32.7833 5.83328 34.1667Z" stroke="white" stroke-width="1.5" stroke-linecap="round" stroke-linejoin="round"/>
<path d="M14.1667 4.06666L16.6667 3.33333L15.9333 5.83333L16.6667 8.33333L14.1667 7.6L11.6667 8.33333L12.4 5.83333L11.6667 3.33333L14.1667 4.06666ZM7.5 14.0667L10 13.3333L9.26667 15.8333L10 18.3333L7.5 17.6L5 18.3333L5.73333 15.8333L5 13.3333L7.5 14.0667ZM32.5 22.4L35 21.6667L34.2667 24.1667L35 26.6667L32.5 25.9333L30 26.6667L30.7333 24.1667L30 21.6667L32.5 22.4Z" stroke="white" stroke-linecap="round" stroke-linejoin="round"/>
</svg>
